<svg xmlns="http://www.w3.org/2000/svg" width="{{ .width }}" height="{{ .height }}"
viewBox="0 0 24 24" fill="none" stroke="currentColor" stroke-width="2.2" stroke-linecap="round"
stroke-linejoin="round" class="title-cat">
<path d="M7.5 8.3 5.1 4.7 4 10.1"></path>
<path d="M16.5 8.3 18.9 4.7 20 10.1"></path>
<path d="M6.2 18.2c1.8 1.4 4 2.1 5.8 2.1s4-.7 5.8-2.1c1.4-1.1 2.2-3 2.2-5.2 0-3.8-2.9-6.8-8-6.8s-8 3-8 6.8c0 2.2.8 4.1 2.2 5.2Z"></path>
<path d="M9.4 13.3h.01"></path>
<path d="M14.6 13.3h.01"></path>
<path d="M10.8 15.9c.5.5 1 .8 1.2.8s.7-.3 1.2-.8"></path>
<path d="M8.6 15.1 6.7 14.6"></path>
<path d="M8.5 16.3 6.5 16.6"></path>
<path d="M15.4 15.1 17.3 14.6"></path>
<path d="M15.5 16.3 17.5 16.6"></path>
</svg>
